<mxfile host="app.diagrams.net" modified="2022-02-21T20:13:09.479Z" agent="5.0 (Windows)" etag="Moy6uVt9t7BO8FFrOZq8" version="16.6.1" type="github">
  <diagram id="R2lEEEUBdFMjLlhIrx00" name="Page-1">
    <mxGraphModel dx="1197" dy="1797" grid="1" gridSize="10" guides="1" tooltips="1" connect="1" arrows="1" fold="1" page="1" pageScale="1" pageWidth="850" pageHeight="1100" math="0" shadow="0" extFonts="Permanent Marker^https://fonts.googleapis.com/css?family=Permanent+Marker">
      <root>
        <mxCell id="0" />
        <mxCell id="1" parent="0" />
        <mxCell id="CTSPQY4HyNSAydRCcFnZ-1" value="&lt;font style=&quot;font-size: 14px&quot;&gt;Director&lt;/font&gt;" style="rounded=0;whiteSpace=wrap;html=1;" vertex="1" parent="1">
          <mxGeometry x="125" y="190" width="110" height="40" as="geometry" />
        </mxCell>
        <mxCell id="CTSPQY4HyNSAydRCcFnZ-2" value="&lt;span style=&quot;left: 130.059px ; top: 339.291px ; font-size: 14.451px ; font-family: sans-serif ; transform: scalex(1.02358)&quot; dir=&quot;ltr&quot;&gt;Movie &lt;/span&gt;" style="rounded=0;whiteSpace=wrap;html=1;" vertex="1" parent="1">
          <mxGeometry x="510" y="180" width="120" height="60" as="geometry" />
        </mxCell>
        <mxCell id="CTSPQY4HyNSAydRCcFnZ-3" value="&lt;font style=&quot;font-size: 14px&quot;&gt;Actor&lt;/font&gt;" style="rounded=0;whiteSpace=wrap;html=1;" vertex="1" parent="1">
          <mxGeometry x="510" y="-80" width="120" height="60" as="geometry" />
        </mxCell>
        <mxCell id="CTSPQY4HyNSAydRCcFnZ-4" value="&lt;span style=&quot;left: 130.059px ; top: 419.074px ; font-size: 14.451px ; font-family: sans-serif ; transform: scalex(1.02064)&quot; dir=&quot;ltr&quot;&gt;Building &lt;/span&gt;" style="rounded=0;whiteSpace=wrap;html=1;" vertex="1" parent="1">
          <mxGeometry x="187.5" y="375" width="120" height="60" as="geometry" />
        </mxCell>
        <mxCell id="CTSPQY4HyNSAydRCcFnZ-5" value="&lt;span style=&quot;left: 130.059px ; top: 458.965px ; font-size: 14.451px ; font-family: sans-serif ; transform: scalex(1.00698)&quot; dir=&quot;ltr&quot;&gt;Theater &lt;/span&gt;" style="rounded=0;whiteSpace=wrap;html=1;" vertex="1" parent="1">
          <mxGeometry x="490" y="380" width="120" height="60" as="geometry" />
        </mxCell>
        <mxCell id="CTSPQY4HyNSAydRCcFnZ-6" value="&lt;span style=&quot;left: 312.566px ; top: 299.4px ; font-size: 14.451px ; font-family: sans-serif ; transform: scalex(0.998834)&quot; dir=&quot;ltr&quot;&gt;Nam&lt;/span&gt;e" style="ellipse;whiteSpace=wrap;html=1;fontSize=14;" vertex="1" parent="1">
          <mxGeometry x="135" y="80" width="90" height="40" as="geometry" />
        </mxCell>
        <mxCell id="CTSPQY4HyNSAydRCcFnZ-7" value="&lt;span style=&quot;left: 130.059px ; top: 319.346px ; font-size: 14.451px ; font-family: sans-serif ; transform: scalex(1.02458)&quot; dir=&quot;ltr&quot;&gt;Birthday&lt;/span&gt;" style="ellipse;whiteSpace=wrap;html=1;fontSize=14;" vertex="1" parent="1">
          <mxGeometry x="240" y="100" width="90" height="40" as="geometry" />
        </mxCell>
        <mxCell id="CTSPQY4HyNSAydRCcFnZ-9" value="&lt;u&gt;Director ID&lt;/u&gt;" style="ellipse;whiteSpace=wrap;html=1;fontSize=14;" vertex="1" parent="1">
          <mxGeometry x="40" y="100" width="90" height="40" as="geometry" />
        </mxCell>
        <mxCell id="CTSPQY4HyNSAydRCcFnZ-16" value="" style="endArrow=none;html=1;rounded=0;fontSize=14;exitX=0.5;exitY=0;exitDx=0;exitDy=0;entryX=0.5;entryY=1;entryDx=0;entryDy=0;" edge="1" parent="1" source="CTSPQY4HyNSAydRCcFnZ-1" target="CTSPQY4HyNSAydRCcFnZ-9">
          <mxGeometry width="50" height="50" relative="1" as="geometry">
            <mxPoint x="510" y="340" as="sourcePoint" />
            <mxPoint x="560" y="290" as="targetPoint" />
          </mxGeometry>
        </mxCell>
        <mxCell id="CTSPQY4HyNSAydRCcFnZ-17" value="" style="endArrow=none;html=1;rounded=0;fontSize=14;exitX=0.5;exitY=0;exitDx=0;exitDy=0;entryX=0.5;entryY=1;entryDx=0;entryDy=0;" edge="1" parent="1" source="CTSPQY4HyNSAydRCcFnZ-1" target="CTSPQY4HyNSAydRCcFnZ-6">
          <mxGeometry width="50" height="50" relative="1" as="geometry">
            <mxPoint x="190" y="200" as="sourcePoint" />
            <mxPoint x="95" y="190" as="targetPoint" />
          </mxGeometry>
        </mxCell>
        <mxCell id="CTSPQY4HyNSAydRCcFnZ-18" value="" style="endArrow=none;html=1;rounded=0;fontSize=14;exitX=0.5;exitY=0;exitDx=0;exitDy=0;entryX=0.5;entryY=1;entryDx=0;entryDy=0;" edge="1" parent="1" source="CTSPQY4HyNSAydRCcFnZ-1" target="CTSPQY4HyNSAydRCcFnZ-7">
          <mxGeometry width="50" height="50" relative="1" as="geometry">
            <mxPoint x="190" y="200" as="sourcePoint" />
            <mxPoint x="190" y="170" as="targetPoint" />
          </mxGeometry>
        </mxCell>
        <mxCell id="CTSPQY4HyNSAydRCcFnZ-19" value="&lt;u&gt;Name&lt;/u&gt;" style="ellipse;whiteSpace=wrap;html=1;fontSize=14;" vertex="1" parent="1">
          <mxGeometry x="665" y="90" width="90" height="40" as="geometry" />
        </mxCell>
        <mxCell id="CTSPQY4HyNSAydRCcFnZ-20" value="&lt;u&gt;Director&lt;/u&gt;" style="ellipse;whiteSpace=wrap;html=1;fontSize=14;" vertex="1" parent="1">
          <mxGeometry x="665" y="140" width="90" height="40" as="geometry" />
        </mxCell>
        <mxCell id="CTSPQY4HyNSAydRCcFnZ-21" value="Release Date" style="ellipse;whiteSpace=wrap;html=1;fontSize=14;" vertex="1" parent="1">
          <mxGeometry x="665" y="190" width="90" height="40" as="geometry" />
        </mxCell>
        <mxCell id="CTSPQY4HyNSAydRCcFnZ-22" value="Genre" style="ellipse;whiteSpace=wrap;html=1;fontSize=14;" vertex="1" parent="1">
          <mxGeometry x="665" y="240" width="90" height="40" as="geometry" />
        </mxCell>
        <mxCell id="CTSPQY4HyNSAydRCcFnZ-23" value="&lt;u&gt;Address&lt;/u&gt;" style="ellipse;whiteSpace=wrap;html=1;fontSize=14;" vertex="1" parent="1">
          <mxGeometry x="67.5" y="325" width="90" height="40" as="geometry" />
        </mxCell>
        <mxCell id="CTSPQY4HyNSAydRCcFnZ-25" value="Area" style="ellipse;whiteSpace=wrap;html=1;fontSize=14;" vertex="1" parent="1">
          <mxGeometry x="67.5" y="385" width="90" height="40" as="geometry" />
        </mxCell>
        <mxCell id="CTSPQY4HyNSAydRCcFnZ-26" value="Establishment Date" style="ellipse;whiteSpace=wrap;html=1;fontSize=14;" vertex="1" parent="1">
          <mxGeometry x="52.5" y="455" width="120" height="40" as="geometry" />
        </mxCell>
        <mxCell id="CTSPQY4HyNSAydRCcFnZ-27" value="&lt;u&gt;Building&lt;/u&gt;" style="ellipse;whiteSpace=wrap;html=1;fontSize=14;" vertex="1" parent="1">
          <mxGeometry x="640" y="340" width="90" height="40" as="geometry" />
        </mxCell>
        <mxCell id="CTSPQY4HyNSAydRCcFnZ-28" value="&lt;u&gt;Theater Number&lt;/u&gt;" style="ellipse;whiteSpace=wrap;html=1;fontSize=14;" vertex="1" parent="1">
          <mxGeometry x="640" y="390" width="90" height="40" as="geometry" />
        </mxCell>
        <mxCell id="CTSPQY4HyNSAydRCcFnZ-29" value="Capacity" style="ellipse;whiteSpace=wrap;html=1;fontSize=14;" vertex="1" parent="1">
          <mxGeometry x="640" y="440" width="90" height="40" as="geometry" />
        </mxCell>
        <mxCell id="CTSPQY4HyNSAydRCcFnZ-30" value="Screen Size" style="ellipse;whiteSpace=wrap;html=1;fontSize=14;" vertex="1" parent="1">
          <mxGeometry x="640" y="490" width="90" height="40" as="geometry" />
        </mxCell>
        <mxCell id="CTSPQY4HyNSAydRCcFnZ-32" value="&lt;u&gt;Actor ID&lt;/u&gt;" style="ellipse;whiteSpace=wrap;html=1;fontSize=14;" vertex="1" parent="1">
          <mxGeometry x="395" y="-120" width="90" height="40" as="geometry" />
        </mxCell>
        <mxCell id="CTSPQY4HyNSAydRCcFnZ-35" value="&lt;span style=&quot;left: 312.566px ; top: 299.4px ; font-size: 14.451px ; font-family: sans-serif ; transform: scalex(0.998834)&quot; dir=&quot;ltr&quot;&gt;Nam&lt;/span&gt;e" style="ellipse;whiteSpace=wrap;html=1;fontSize=14;" vertex="1" parent="1">
          <mxGeometry x="395" y="-70" width="90" height="40" as="geometry" />
        </mxCell>
        <mxCell id="CTSPQY4HyNSAydRCcFnZ-36" value="&lt;span style=&quot;left: 130.059px ; top: 319.346px ; font-size: 14.451px ; font-family: sans-serif ; transform: scalex(1.02458)&quot; dir=&quot;ltr&quot;&gt;Birthday&lt;/span&gt;" style="ellipse;whiteSpace=wrap;html=1;fontSize=14;" vertex="1" parent="1">
          <mxGeometry x="395" y="-20" width="90" height="40" as="geometry" />
        </mxCell>
        <mxCell id="CTSPQY4HyNSAydRCcFnZ-40" value="" style="endArrow=none;html=1;rounded=0;fontSize=14;entryX=0;entryY=0.5;entryDx=0;entryDy=0;exitX=1;exitY=0.5;exitDx=0;exitDy=0;" edge="1" parent="1" source="CTSPQY4HyNSAydRCcFnZ-2" target="CTSPQY4HyNSAydRCcFnZ-19">
          <mxGeometry width="50" height="50" relative="1" as="geometry">
            <mxPoint x="420" y="220" as="sourcePoint" />
            <mxPoint x="475" y="220" as="targetPoint" />
          </mxGeometry>
        </mxCell>
        <mxCell id="CTSPQY4HyNSAydRCcFnZ-42" value="" style="endArrow=none;html=1;rounded=0;fontSize=14;entryX=0;entryY=0.5;entryDx=0;entryDy=0;exitX=1;exitY=0.5;exitDx=0;exitDy=0;" edge="1" parent="1" source="CTSPQY4HyNSAydRCcFnZ-2" target="CTSPQY4HyNSAydRCcFnZ-20">
          <mxGeometry width="50" height="50" relative="1" as="geometry">
            <mxPoint x="595" y="220" as="sourcePoint" />
            <mxPoint x="630" y="120" as="targetPoint" />
          </mxGeometry>
        </mxCell>
        <mxCell id="CTSPQY4HyNSAydRCcFnZ-43" value="" style="endArrow=none;html=1;rounded=0;fontSize=14;entryX=0;entryY=0.5;entryDx=0;entryDy=0;exitX=1;exitY=0.5;exitDx=0;exitDy=0;" edge="1" parent="1" source="CTSPQY4HyNSAydRCcFnZ-2" target="CTSPQY4HyNSAydRCcFnZ-21">
          <mxGeometry width="50" height="50" relative="1" as="geometry">
            <mxPoint x="595" y="220" as="sourcePoint" />
            <mxPoint x="630" y="170" as="targetPoint" />
          </mxGeometry>
        </mxCell>
        <mxCell id="CTSPQY4HyNSAydRCcFnZ-44" value="" style="endArrow=none;html=1;rounded=0;fontSize=14;entryX=0;entryY=0.5;entryDx=0;entryDy=0;exitX=1;exitY=0.5;exitDx=0;exitDy=0;" edge="1" parent="1" source="CTSPQY4HyNSAydRCcFnZ-2" target="CTSPQY4HyNSAydRCcFnZ-22">
          <mxGeometry width="50" height="50" relative="1" as="geometry">
            <mxPoint x="595" y="220" as="sourcePoint" />
            <mxPoint x="630" y="220" as="targetPoint" />
          </mxGeometry>
        </mxCell>
        <mxCell id="CTSPQY4HyNSAydRCcFnZ-45" value="" style="endArrow=none;html=1;rounded=0;fontSize=14;exitX=0;exitY=0.5;exitDx=0;exitDy=0;entryX=1;entryY=0.5;entryDx=0;entryDy=0;" edge="1" parent="1" source="CTSPQY4HyNSAydRCcFnZ-3" target="CTSPQY4HyNSAydRCcFnZ-32">
          <mxGeometry width="50" height="50" relative="1" as="geometry">
            <mxPoint x="594.9999999999998" y="-260" as="sourcePoint" />
            <mxPoint x="594.9999999999998" y="-290" as="targetPoint" />
          </mxGeometry>
        </mxCell>
        <mxCell id="CTSPQY4HyNSAydRCcFnZ-46" value="" style="endArrow=none;html=1;rounded=0;fontSize=14;exitX=0;exitY=0.5;exitDx=0;exitDy=0;entryX=1;entryY=0.5;entryDx=0;entryDy=0;" edge="1" parent="1" source="CTSPQY4HyNSAydRCcFnZ-3" target="CTSPQY4HyNSAydRCcFnZ-35">
          <mxGeometry width="50" height="50" relative="1" as="geometry">
            <mxPoint x="519.9999999999998" y="-40" as="sourcePoint" />
            <mxPoint x="495.0000000000043" y="-90" as="targetPoint" />
          </mxGeometry>
        </mxCell>
        <mxCell id="CTSPQY4HyNSAydRCcFnZ-47" value="" style="endArrow=none;html=1;rounded=0;fontSize=14;entryX=1;entryY=0.5;entryDx=0;entryDy=0;exitX=0;exitY=0.5;exitDx=0;exitDy=0;" edge="1" parent="1" source="CTSPQY4HyNSAydRCcFnZ-3" target="CTSPQY4HyNSAydRCcFnZ-36">
          <mxGeometry width="50" height="50" relative="1" as="geometry">
            <mxPoint x="157" y="390" as="sourcePoint" />
            <mxPoint x="137.00000000000432" y="400" as="targetPoint" />
          </mxGeometry>
        </mxCell>
        <mxCell id="CTSPQY4HyNSAydRCcFnZ-51" value="" style="endArrow=none;html=1;rounded=0;fontSize=14;entryX=0;entryY=0.5;entryDx=0;entryDy=0;exitX=1;exitY=0.5;exitDx=0;exitDy=0;" edge="1" parent="1" source="CTSPQY4HyNSAydRCcFnZ-5" target="CTSPQY4HyNSAydRCcFnZ-27">
          <mxGeometry width="50" height="50" relative="1" as="geometry">
            <mxPoint x="595" y="220" as="sourcePoint" />
            <mxPoint x="630" y="120" as="targetPoint" />
          </mxGeometry>
        </mxCell>
        <mxCell id="CTSPQY4HyNSAydRCcFnZ-52" value="" style="endArrow=none;html=1;rounded=0;fontSize=14;exitX=1;exitY=0.5;exitDx=0;exitDy=0;" edge="1" parent="1" source="CTSPQY4HyNSAydRCcFnZ-5" target="CTSPQY4HyNSAydRCcFnZ-28">
          <mxGeometry width="50" height="50" relative="1" as="geometry">
            <mxPoint x="620" y="420" as="sourcePoint" />
            <mxPoint x="650" y="370" as="targetPoint" />
          </mxGeometry>
        </mxCell>
        <mxCell id="CTSPQY4HyNSAydRCcFnZ-53" value="" style="endArrow=none;html=1;rounded=0;fontSize=14;exitX=1;exitY=0.5;exitDx=0;exitDy=0;entryX=0;entryY=0.5;entryDx=0;entryDy=0;" edge="1" parent="1" source="CTSPQY4HyNSAydRCcFnZ-5" target="CTSPQY4HyNSAydRCcFnZ-29">
          <mxGeometry width="50" height="50" relative="1" as="geometry">
            <mxPoint x="620" y="420" as="sourcePoint" />
            <mxPoint x="650" y="420" as="targetPoint" />
          </mxGeometry>
        </mxCell>
        <mxCell id="CTSPQY4HyNSAydRCcFnZ-54" value="" style="endArrow=none;html=1;rounded=0;fontSize=14;exitX=1;exitY=0.5;exitDx=0;exitDy=0;entryX=0;entryY=0.5;entryDx=0;entryDy=0;" edge="1" parent="1" source="CTSPQY4HyNSAydRCcFnZ-5">
          <mxGeometry width="50" height="50" relative="1" as="geometry">
            <mxPoint x="620" y="420" as="sourcePoint" />
            <mxPoint x="639.9999999999945" y="510" as="targetPoint" />
          </mxGeometry>
        </mxCell>
        <mxCell id="CTSPQY4HyNSAydRCcFnZ-92" style="edgeStyle=none;rounded=0;orthogonalLoop=1;jettySize=auto;html=1;exitX=0;exitY=0.5;exitDx=0;exitDy=0;entryX=1;entryY=0.5;entryDx=0;entryDy=0;fontSize=14;" edge="1" parent="1" source="CTSPQY4HyNSAydRCcFnZ-57" target="CTSPQY4HyNSAydRCcFnZ-1">
          <mxGeometry relative="1" as="geometry" />
        </mxCell>
        <mxCell id="CTSPQY4HyNSAydRCcFnZ-57" value="direct" style="rhombus;whiteSpace=wrap;html=1;fontSize=14;" vertex="1" parent="1">
          <mxGeometry x="300" y="175" width="100" height="70" as="geometry" />
        </mxCell>
        <mxCell id="CTSPQY4HyNSAydRCcFnZ-67" value="act" style="rhombus;whiteSpace=wrap;html=1;fontSize=14;" vertex="1" parent="1">
          <mxGeometry x="520" y="45" width="100" height="70" as="geometry" />
        </mxCell>
        <mxCell id="CTSPQY4HyNSAydRCcFnZ-71" style="edgeStyle=none;rounded=0;orthogonalLoop=1;jettySize=auto;html=1;entryX=0.5;entryY=0;entryDx=0;entryDy=0;fontSize=14;" edge="1" parent="1" source="CTSPQY4HyNSAydRCcFnZ-2" target="CTSPQY4HyNSAydRCcFnZ-2">
          <mxGeometry relative="1" as="geometry" />
        </mxCell>
        <mxCell id="CTSPQY4HyNSAydRCcFnZ-80" value="" style="endArrow=none;html=1;rounded=0;fontSize=14;exitX=1;exitY=0.5;exitDx=0;exitDy=0;entryX=0;entryY=0.5;entryDx=0;entryDy=0;" edge="1" parent="1" source="CTSPQY4HyNSAydRCcFnZ-67" target="CTSPQY4HyNSAydRCcFnZ-81">
          <mxGeometry width="50" height="50" relative="1" as="geometry">
            <mxPoint x="320" y="205" as="sourcePoint" />
            <mxPoint x="425" y="155" as="targetPoint" />
          </mxGeometry>
        </mxCell>
        <mxCell id="CTSPQY4HyNSAydRCcFnZ-81" value="Role Name" style="ellipse;whiteSpace=wrap;html=1;fontSize=14;" vertex="1" parent="1">
          <mxGeometry x="655" y="20" width="90" height="40" as="geometry" />
        </mxCell>
        <mxCell id="CTSPQY4HyNSAydRCcFnZ-82" value="" style="endArrow=none;html=1;rounded=0;fontSize=14;exitX=0;exitY=0.5;exitDx=0;exitDy=0;entryX=1;entryY=0.5;entryDx=0;entryDy=0;" edge="1" parent="1" source="CTSPQY4HyNSAydRCcFnZ-4" target="CTSPQY4HyNSAydRCcFnZ-23">
          <mxGeometry width="50" height="50" relative="1" as="geometry">
            <mxPoint x="77.5" y="195" as="sourcePoint" />
            <mxPoint x="182.5" y="145" as="targetPoint" />
          </mxGeometry>
        </mxCell>
        <mxCell id="CTSPQY4HyNSAydRCcFnZ-83" value="" style="endArrow=none;html=1;rounded=0;fontSize=14;exitX=0;exitY=0.5;exitDx=0;exitDy=0;entryX=1;entryY=0.5;entryDx=0;entryDy=0;" edge="1" parent="1" source="CTSPQY4HyNSAydRCcFnZ-4" target="CTSPQY4HyNSAydRCcFnZ-25">
          <mxGeometry width="50" height="50" relative="1" as="geometry">
            <mxPoint x="197.5" y="415" as="sourcePoint" />
            <mxPoint x="167.5" y="355" as="targetPoint" />
          </mxGeometry>
        </mxCell>
        <mxCell id="CTSPQY4HyNSAydRCcFnZ-84" value="" style="endArrow=none;html=1;rounded=0;fontSize=14;exitX=0;exitY=0.5;exitDx=0;exitDy=0;entryX=1;entryY=0.5;entryDx=0;entryDy=0;" edge="1" parent="1" source="CTSPQY4HyNSAydRCcFnZ-4" target="CTSPQY4HyNSAydRCcFnZ-26">
          <mxGeometry width="50" height="50" relative="1" as="geometry">
            <mxPoint x="197.5" y="415" as="sourcePoint" />
            <mxPoint x="167.5" y="415" as="targetPoint" />
          </mxGeometry>
        </mxCell>
        <mxCell id="CTSPQY4HyNSAydRCcFnZ-100" style="edgeStyle=none;rounded=0;orthogonalLoop=1;jettySize=auto;html=1;exitX=0;exitY=0.5;exitDx=0;exitDy=0;entryX=0.5;entryY=1;entryDx=0;entryDy=0;entryPerimeter=0;fontSize=14;" edge="1" parent="1" source="CTSPQY4HyNSAydRCcFnZ-85" target="CTSPQY4HyNSAydRCcFnZ-98">
          <mxGeometry relative="1" as="geometry" />
        </mxCell>
        <mxCell id="CTSPQY4HyNSAydRCcFnZ-85" value="locate" style="rhombus;whiteSpace=wrap;html=1;fontSize=14;" vertex="1" parent="1">
          <mxGeometry x="350" y="370" width="100" height="70" as="geometry" />
        </mxCell>
        <mxCell id="CTSPQY4HyNSAydRCcFnZ-89" value="" style="endArrow=none;html=1;rounded=0;fontSize=14;" edge="1" parent="1" target="CTSPQY4HyNSAydRCcFnZ-2">
          <mxGeometry relative="1" as="geometry">
            <mxPoint x="400" y="210" as="sourcePoint" />
            <mxPoint x="310" y="220" as="targetPoint" />
          </mxGeometry>
        </mxCell>
        <mxCell id="CTSPQY4HyNSAydRCcFnZ-91" value="" style="verticalLabelPosition=bottom;verticalAlign=top;html=1;shape=mxgraph.basic.half_circle;fontSize=14;direction=south;" vertex="1" parent="1">
          <mxGeometry x="235" y="195" width="15" height="30" as="geometry" />
        </mxCell>
        <mxCell id="CTSPQY4HyNSAydRCcFnZ-93" value="" style="endArrow=none;html=1;rounded=0;fontSize=14;exitX=0.5;exitY=1;exitDx=0;exitDy=0;entryX=0.5;entryY=0;entryDx=0;entryDy=0;" edge="1" parent="1" source="CTSPQY4HyNSAydRCcFnZ-67" target="CTSPQY4HyNSAydRCcFnZ-2">
          <mxGeometry relative="1" as="geometry">
            <mxPoint x="410" y="220" as="sourcePoint" />
            <mxPoint x="520.0000000000002" y="220" as="targetPoint" />
          </mxGeometry>
        </mxCell>
        <mxCell id="CTSPQY4HyNSAydRCcFnZ-94" value="" style="endArrow=none;html=1;rounded=0;fontSize=14;exitX=0.5;exitY=1;exitDx=0;exitDy=0;entryX=0.5;entryY=0;entryDx=0;entryDy=0;" edge="1" parent="1" source="CTSPQY4HyNSAydRCcFnZ-3" target="CTSPQY4HyNSAydRCcFnZ-67">
          <mxGeometry relative="1" as="geometry">
            <mxPoint x="580" y="125" as="sourcePoint" />
            <mxPoint x="710.0000000000002" y="195" as="targetPoint" />
          </mxGeometry>
        </mxCell>
        <mxCell id="CTSPQY4HyNSAydRCcFnZ-95" value="" style="endArrow=none;html=1;rounded=0;fontSize=14;" edge="1" parent="1" source="CTSPQY4HyNSAydRCcFnZ-85">
          <mxGeometry relative="1" as="geometry">
            <mxPoint x="410" y="220" as="sourcePoint" />
            <mxPoint x="490" y="405" as="targetPoint" />
          </mxGeometry>
        </mxCell>
        <mxCell id="CTSPQY4HyNSAydRCcFnZ-98" value="" style="verticalLabelPosition=bottom;verticalAlign=top;html=1;shape=mxgraph.basic.half_circle;fontSize=14;direction=south;" vertex="1" parent="1">
          <mxGeometry x="307.5" y="390" width="15" height="30" as="geometry" />
        </mxCell>
        <mxCell id="CTSPQY4HyNSAydRCcFnZ-101" value="show" style="rhombus;whiteSpace=wrap;html=1;fontSize=14;" vertex="1" parent="1">
          <mxGeometry x="520" y="280" width="100" height="70" as="geometry" />
        </mxCell>
        <mxCell id="CTSPQY4HyNSAydRCcFnZ-102" value="" style="endArrow=none;html=1;rounded=0;fontSize=14;entryX=0.5;entryY=1;entryDx=0;entryDy=0;exitX=0.5;exitY=0;exitDx=0;exitDy=0;" edge="1" parent="1" source="CTSPQY4HyNSAydRCcFnZ-101" target="CTSPQY4HyNSAydRCcFnZ-2">
          <mxGeometry relative="1" as="geometry">
            <mxPoint x="410" y="220" as="sourcePoint" />
            <mxPoint x="520.0000000000002" y="220" as="targetPoint" />
          </mxGeometry>
        </mxCell>
        <mxCell id="CTSPQY4HyNSAydRCcFnZ-103" value="" style="endArrow=none;html=1;rounded=0;fontSize=14;entryX=0.5;entryY=1;entryDx=0;entryDy=0;exitX=0.5;exitY=0;exitDx=0;exitDy=0;" edge="1" parent="1" source="CTSPQY4HyNSAydRCcFnZ-5" target="CTSPQY4HyNSAydRCcFnZ-101">
          <mxGeometry relative="1" as="geometry">
            <mxPoint x="580.0000000000002" y="290" as="sourcePoint" />
            <mxPoint x="580.0000000000002" y="250" as="targetPoint" />
          </mxGeometry>
        </mxCell>
        <mxCell id="CTSPQY4HyNSAydRCcFnZ-104" style="edgeStyle=none;rounded=0;orthogonalLoop=1;jettySize=auto;html=1;entryX=0.5;entryY=1;entryDx=0;entryDy=0;fontSize=14;" edge="1" parent="1" source="CTSPQY4HyNSAydRCcFnZ-101" target="CTSPQY4HyNSAydRCcFnZ-101">
          <mxGeometry relative="1" as="geometry" />
        </mxCell>
        <mxCell id="CTSPQY4HyNSAydRCcFnZ-105" value="show time" style="ellipse;whiteSpace=wrap;html=1;fontSize=14;" vertex="1" parent="1">
          <mxGeometry x="380" y="295" width="90" height="40" as="geometry" />
        </mxCell>
        <mxCell id="CTSPQY4HyNSAydRCcFnZ-106" value="" style="endArrow=none;html=1;rounded=0;fontSize=14;entryX=0;entryY=0.5;entryDx=0;entryDy=0;exitX=1;exitY=0.5;exitDx=0;exitDy=0;" edge="1" parent="1" source="CTSPQY4HyNSAydRCcFnZ-105" target="CTSPQY4HyNSAydRCcFnZ-101">
          <mxGeometry relative="1" as="geometry">
            <mxPoint x="460" y="415" as="sourcePoint" />
            <mxPoint x="500.0000000000002" y="415" as="targetPoint" />
          </mxGeometry>
        </mxCell>
      </root>
    </mxGraphModel>
  </diagram>
</mxfile>
